<mxfile host="app.diagrams.net" modified="2024-05-07T07:45:16.928Z" agent="Mozilla/5.0 (Windows NT 10.0; Win64; x64) AppleWebKit/537.36 (KHTML, like Gecko) Chrome/124.0.0.0 Safari/537.36 Edg/124.0.0.0" etag="LUFZfjk1-AoeS4JGsklL" version="24.3.1" type="github">
  <diagram name="Page-1" id="9mzV-lpWS60-juknzmFb">
    <mxGraphModel dx="794" dy="501" grid="1" gridSize="10" guides="1" tooltips="1" connect="1" arrows="1" fold="1" page="1" pageScale="1" pageWidth="850" pageHeight="1100" math="0" shadow="0">
      <root>
        <mxCell id="0" />
        <mxCell id="1" parent="0" />
        <mxCell id="w06xKKS2V2pI1HP8q2TN-10" value="" style="rounded=1;whiteSpace=wrap;html=1;" parent="1" vertex="1">
          <mxGeometry x="168" y="10" width="682" height="490" as="geometry" />
        </mxCell>
        <mxCell id="w06xKKS2V2pI1HP8q2TN-11" value="" style="edgeStyle=orthogonalEdgeStyle;rounded=0;orthogonalLoop=1;jettySize=auto;html=1;" parent="1" source="w06xKKS2V2pI1HP8q2TN-1" target="w06xKKS2V2pI1HP8q2TN-9" edge="1">
          <mxGeometry relative="1" as="geometry" />
        </mxCell>
        <mxCell id="w06xKKS2V2pI1HP8q2TN-1" value="" style="sketch=0;html=1;aspect=fixed;strokeColor=none;shadow=0;fillColor=#3B8DF1;verticalAlign=top;labelPosition=center;verticalLabelPosition=bottom;shape=mxgraph.gcp2.database_3" parent="1" vertex="1">
          <mxGeometry x="70" y="130" width="63" height="90" as="geometry" />
        </mxCell>
        <mxCell id="w06xKKS2V2pI1HP8q2TN-12" value="" style="edgeStyle=orthogonalEdgeStyle;rounded=0;orthogonalLoop=1;jettySize=auto;html=1;" parent="1" source="w06xKKS2V2pI1HP8q2TN-2" target="w06xKKS2V2pI1HP8q2TN-9" edge="1">
          <mxGeometry relative="1" as="geometry" />
        </mxCell>
        <mxCell id="w06xKKS2V2pI1HP8q2TN-2" value="" style="sketch=0;html=1;aspect=fixed;strokeColor=none;shadow=0;fillColor=#3B8DF1;verticalAlign=top;labelPosition=center;verticalLabelPosition=bottom;shape=mxgraph.gcp2.database_2" parent="1" vertex="1">
          <mxGeometry x="70" y="230" width="78" height="100" as="geometry" />
        </mxCell>
        <mxCell id="w06xKKS2V2pI1HP8q2TN-3" value="20 TB" style="text;html=1;align=center;verticalAlign=middle;whiteSpace=wrap;rounded=0;" parent="1" vertex="1">
          <mxGeometry x="79" y="280" width="60" height="30" as="geometry" />
        </mxCell>
        <mxCell id="w06xKKS2V2pI1HP8q2TN-15" value="" style="edgeStyle=orthogonalEdgeStyle;rounded=0;orthogonalLoop=1;jettySize=auto;html=1;" parent="1" source="w06xKKS2V2pI1HP8q2TN-9" target="w06xKKS2V2pI1HP8q2TN-14" edge="1">
          <mxGeometry relative="1" as="geometry" />
        </mxCell>
        <mxCell id="w06xKKS2V2pI1HP8q2TN-9" value="" style="sketch=0;points=[[0,0,0],[0.25,0,0],[0.5,0,0],[0.75,0,0],[1,0,0],[0,1,0],[0.25,1,0],[0.5,1,0],[0.75,1,0],[1,1,0],[0,0.25,0],[0,0.5,0],[0,0.75,0],[1,0.25,0],[1,0.5,0],[1,0.75,0]];outlineConnect=0;fontColor=#232F3E;fillColor=#01A88D;strokeColor=#ffffff;dashed=0;verticalLabelPosition=bottom;verticalAlign=top;align=center;html=1;fontSize=12;fontStyle=0;aspect=fixed;shape=mxgraph.aws4.resourceIcon;resIcon=mxgraph.aws4.database_migration_service;" parent="1" vertex="1">
          <mxGeometry x="190" y="236.75" width="86.5" height="86.5" as="geometry" />
        </mxCell>
        <mxCell id="w06xKKS2V2pI1HP8q2TN-17" value="" style="edgeStyle=orthogonalEdgeStyle;rounded=0;orthogonalLoop=1;jettySize=auto;html=1;" parent="1" source="w06xKKS2V2pI1HP8q2TN-14" target="w06xKKS2V2pI1HP8q2TN-16" edge="1">
          <mxGeometry relative="1" as="geometry" />
        </mxCell>
        <mxCell id="w06xKKS2V2pI1HP8q2TN-14" value="" style="outlineConnect=0;dashed=0;verticalLabelPosition=bottom;verticalAlign=top;align=center;html=1;shape=mxgraph.aws3.s3;fillColor=#E05243;gradientColor=none;" parent="1" vertex="1">
          <mxGeometry x="320" y="233.5" width="76.5" height="93" as="geometry" />
        </mxCell>
        <mxCell id="w06xKKS2V2pI1HP8q2TN-20" value="" style="edgeStyle=orthogonalEdgeStyle;rounded=0;orthogonalLoop=1;jettySize=auto;html=1;" parent="1" source="w06xKKS2V2pI1HP8q2TN-16" target="w06xKKS2V2pI1HP8q2TN-19" edge="1">
          <mxGeometry relative="1" as="geometry" />
        </mxCell>
        <mxCell id="w06xKKS2V2pI1HP8q2TN-16" value="" style="sketch=0;points=[[0,0,0],[0.25,0,0],[0.5,0,0],[0.75,0,0],[1,0,0],[0,1,0],[0.25,1,0],[0.5,1,0],[0.75,1,0],[1,1,0],[0,0.25,0],[0,0.5,0],[0,0.75,0],[1,0.25,0],[1,0.5,0],[1,0.75,0]];outlineConnect=0;fontColor=#232F3E;fillColor=#DD344C;strokeColor=#ffffff;dashed=0;verticalLabelPosition=bottom;verticalAlign=top;align=center;html=1;fontSize=12;fontStyle=0;aspect=fixed;shape=mxgraph.aws4.resourceIcon;resIcon=mxgraph.aws4.macie;" parent="1" vertex="1">
          <mxGeometry x="320" y="70" width="78" height="78" as="geometry" />
        </mxCell>
        <mxCell id="w06xKKS2V2pI1HP8q2TN-18" value="&lt;b&gt;&lt;font style=&quot;font-size: 18px;&quot;&gt;AWS&lt;/font&gt;&lt;/b&gt;" style="text;html=1;align=center;verticalAlign=middle;whiteSpace=wrap;rounded=0;" parent="1" vertex="1">
          <mxGeometry x="479" y="10" width="60" height="30" as="geometry" />
        </mxCell>
        <mxCell id="w06xKKS2V2pI1HP8q2TN-22" value="" style="edgeStyle=orthogonalEdgeStyle;rounded=0;orthogonalLoop=1;jettySize=auto;html=1;" parent="1" source="w06xKKS2V2pI1HP8q2TN-19" target="w06xKKS2V2pI1HP8q2TN-21" edge="1">
          <mxGeometry relative="1" as="geometry" />
        </mxCell>
        <mxCell id="w06xKKS2V2pI1HP8q2TN-19" value="" style="sketch=0;points=[[0,0,0],[0.25,0,0],[0.5,0,0],[0.75,0,0],[1,0,0],[0,1,0],[0.25,1,0],[0.5,1,0],[0.75,1,0],[1,1,0],[0,0.25,0],[0,0.5,0],[0,0.75,0],[1,0.25,0],[1,0.5,0],[1,0.75,0]];outlineConnect=0;fontColor=#232F3E;fillColor=#E7157B;strokeColor=#ffffff;dashed=0;verticalLabelPosition=bottom;verticalAlign=top;align=center;html=1;fontSize=12;fontStyle=0;aspect=fixed;shape=mxgraph.aws4.resourceIcon;resIcon=mxgraph.aws4.eventbridge;" parent="1" vertex="1">
          <mxGeometry x="700" y="70" width="78" height="78" as="geometry" />
        </mxCell>
        <mxCell id="w06xKKS2V2pI1HP8q2TN-25" value="" style="edgeStyle=orthogonalEdgeStyle;rounded=0;orthogonalLoop=1;jettySize=auto;html=1;" parent="1" source="w06xKKS2V2pI1HP8q2TN-21" target="w06xKKS2V2pI1HP8q2TN-24" edge="1">
          <mxGeometry relative="1" as="geometry" />
        </mxCell>
        <mxCell id="w06xKKS2V2pI1HP8q2TN-21" value="" style="sketch=0;points=[[0,0,0],[0.25,0,0],[0.5,0,0],[0.75,0,0],[1,0,0],[0,1,0],[0.25,1,0],[0.5,1,0],[0.75,1,0],[1,1,0],[0,0.25,0],[0,0.5,0],[0,0.75,0],[1,0.25,0],[1,0.5,0],[1,0.75,0]];outlineConnect=0;fontColor=#232F3E;fillColor=#8C4FFF;strokeColor=#ffffff;dashed=0;verticalLabelPosition=bottom;verticalAlign=top;align=center;html=1;fontSize=12;fontStyle=0;aspect=fixed;shape=mxgraph.aws4.resourceIcon;resIcon=mxgraph.aws4.kinesis;" parent="1" vertex="1">
          <mxGeometry x="700" y="256" width="78" height="78" as="geometry" />
        </mxCell>
        <mxCell id="w06xKKS2V2pI1HP8q2TN-27" value="" style="edgeStyle=orthogonalEdgeStyle;rounded=0;orthogonalLoop=1;jettySize=auto;html=1;" parent="1" source="w06xKKS2V2pI1HP8q2TN-24" target="w06xKKS2V2pI1HP8q2TN-26" edge="1">
          <mxGeometry relative="1" as="geometry" />
        </mxCell>
        <mxCell id="w06xKKS2V2pI1HP8q2TN-24" value="" style="sketch=0;points=[[0,0,0],[0.25,0,0],[0.5,0,0],[0.75,0,0],[1,0,0],[0,1,0],[0.25,1,0],[0.5,1,0],[0.75,1,0],[1,1,0],[0,0.25,0],[0,0.5,0],[0,0.75,0],[1,0.25,0],[1,0.5,0],[1,0.75,0]];outlineConnect=0;fontColor=#232F3E;fillColor=#7AA116;strokeColor=#ffffff;dashed=0;verticalLabelPosition=bottom;verticalAlign=top;align=center;html=1;fontSize=12;fontStyle=0;aspect=fixed;shape=mxgraph.aws4.resourceIcon;resIcon=mxgraph.aws4.s3;" parent="1" vertex="1">
          <mxGeometry x="700" y="400" width="78" height="78" as="geometry" />
        </mxCell>
        <mxCell id="w06xKKS2V2pI1HP8q2TN-28" value="" style="edgeStyle=orthogonalEdgeStyle;rounded=0;orthogonalLoop=1;jettySize=auto;html=1;" parent="1" source="w06xKKS2V2pI1HP8q2TN-26" target="w06xKKS2V2pI1HP8q2TN-14" edge="1">
          <mxGeometry relative="1" as="geometry" />
        </mxCell>
        <mxCell id="w06xKKS2V2pI1HP8q2TN-26" value="" style="sketch=0;points=[[0,0,0],[0.25,0,0],[0.5,0,0],[0.75,0,0],[1,0,0],[0,1,0],[0.25,1,0],[0.5,1,0],[0.75,1,0],[1,1,0],[0,0.25,0],[0,0.5,0],[0,0.75,0],[1,0.25,0],[1,0.5,0],[1,0.75,0]];outlineConnect=0;fontColor=#232F3E;fillColor=#ED7100;strokeColor=#ffffff;dashed=0;verticalLabelPosition=bottom;verticalAlign=top;align=center;html=1;fontSize=12;fontStyle=0;aspect=fixed;shape=mxgraph.aws4.resourceIcon;resIcon=mxgraph.aws4.lambda;" parent="1" vertex="1">
          <mxGeometry x="318.5" y="400" width="78" height="78" as="geometry" />
        </mxCell>
        <mxCell id="Xu-GLPxb1RQIzigStUN2-1" value="Structure" style="text;html=1;align=center;verticalAlign=middle;whiteSpace=wrap;rounded=0;" vertex="1" parent="1">
          <mxGeometry x="70" y="100" width="60" height="30" as="geometry" />
        </mxCell>
        <mxCell id="Xu-GLPxb1RQIzigStUN2-3" value="Macie" style="text;html=1;align=center;verticalAlign=middle;whiteSpace=wrap;rounded=0;" vertex="1" parent="1">
          <mxGeometry x="327.5" y="40" width="60" height="30" as="geometry" />
        </mxCell>
        <mxCell id="Xu-GLPxb1RQIzigStUN2-4" value="Event Bridge" style="text;html=1;align=center;verticalAlign=middle;whiteSpace=wrap;rounded=0;" vertex="1" parent="1">
          <mxGeometry x="709" y="40" width="60" height="30" as="geometry" />
        </mxCell>
        <mxCell id="Xu-GLPxb1RQIzigStUN2-5" value="S3" style="text;html=1;align=center;verticalAlign=middle;whiteSpace=wrap;rounded=0;" vertex="1" parent="1">
          <mxGeometry x="350" y="206.75" width="60" height="30" as="geometry" />
        </mxCell>
        <mxCell id="Xu-GLPxb1RQIzigStUN2-6" value="Unstucture" style="text;html=1;align=center;verticalAlign=middle;whiteSpace=wrap;rounded=0;" vertex="1" parent="1">
          <mxGeometry x="70" y="334" width="60" height="30" as="geometry" />
        </mxCell>
        <mxCell id="Xu-GLPxb1RQIzigStUN2-7" value="Data Migration Service" style="text;html=1;align=center;verticalAlign=middle;whiteSpace=wrap;rounded=0;" vertex="1" parent="1">
          <mxGeometry x="203.25" y="330" width="60" height="30" as="geometry" />
        </mxCell>
        <mxCell id="Xu-GLPxb1RQIzigStUN2-8" value="AWS Lambda" style="text;html=1;align=center;verticalAlign=middle;whiteSpace=wrap;rounded=0;" vertex="1" parent="1">
          <mxGeometry x="320" y="370" width="90" height="30" as="geometry" />
        </mxCell>
        <mxCell id="Xu-GLPxb1RQIzigStUN2-9" value="Kinensis&amp;nbsp;" style="text;html=1;align=center;verticalAlign=middle;whiteSpace=wrap;rounded=0;" vertex="1" parent="1">
          <mxGeometry x="680" y="230" width="60" height="30" as="geometry" />
        </mxCell>
        <mxCell id="Xu-GLPxb1RQIzigStUN2-10" value="S3 output" style="text;html=1;align=center;verticalAlign=middle;whiteSpace=wrap;rounded=0;" vertex="1" parent="1">
          <mxGeometry x="740" y="380" width="60" height="30" as="geometry" />
        </mxCell>
      </root>
    </mxGraphModel>
  </diagram>
</mxfile>
